<?xml version="1.0" encoding="UTF-8" standalone="no"?>
<!-- Created with Inkscape (http://www.inkscape.org/) -->

<svg
   width="132.34738mm"
   height="175.34669mm"
   viewBox="0 0 132.34738 175.34669"
   version="1.1"
   id="svg5"
   xml:space="preserve"
   xmlns="http://www.w3.org/2000/svg"
   xmlns:svg="http://www.w3.org/2000/svg"><defs
     id="defs2" /><g
     id="layer1"
     transform="translate(-37.326402,-55.741804)"><g
       id="g376"
       transform="translate(5.5563008,-10.629569)"><g
         id="g3604"><g
           id="g5890"><path
             style="fill:#020f07;stroke-width:0.264583"
             d="m 98.47292,241.69341 c 0.29104,-0.0286 2.61275,-0.24726 5.15936,-0.48601 14.98264,-1.4046 24.90077,-5.29644 35.84784,-14.06655 5.50822,-4.41285 9.46803,-8.58458 13.57044,-14.29672 6.24269,-8.69224 8.87206,-15.07784 10.57281,-25.67681 0.6653,-4.14608 0.65694,-17.08122 -0.0141,-21.88657 -1.53437,-10.98702 -3.63913,-19.41241 -7.79934,-31.22083 -1.54572,-4.38739 -2.49745,-6.75542 -5.42329,-13.49375 -1.19983,-2.76327 -5.62047,-11.5415 -7.79464,-15.47813 -2.79521,-5.06108 -9.2286,-14.862437 -12.02045,-18.313307 -5.94118,-7.3436 -10.72059,-11.80452 -16.09132,-15.01901 -5.9904,-3.58537 -11.51544,-5.38435 -16.53645,-5.38435 -5.021026,0 -10.546056,1.79898 -16.536456,5.38435 -5.37193,3.21521 -10.16191,7.68642 -16.08977,15.01901 -2.5777,3.18854 -8.57848,12.22409 -11.28382,16.990397 -1.9864,3.49965 -7.01438,13.39625 -8.40137,16.53646 -7.17226,16.23825 -11.26941,30.03791 -13.35443,44.97916 -0.6707,4.80621 -0.67884,17.74194 -0.0138,21.88657 1.55936,9.71787 3.83824,15.65858 8.94788,23.32585 5.71081,8.56935 12.11317,14.95432 20.91532,20.85849 5.3972,3.62025 10.90003,6.05484 17.80602,7.87781 3.75889,0.99223 6.64016,1.46501 12.05728,1.97843 5.550066,0.52602 5.844686,0.54809 6.482296,0.48551 z M 85.378154,230.22496 c -6.43581,-1.51414 -12.0735,-4.43683 -17.9387,-9.2998 -7.0195,-5.82002 -17.05011,-17.85812 -22.01094,-26.41611 -5.87331,-10.13211 -6.8826,-13.6034 -6.88331,-23.67379 -2.3e-4,-3.2268 0.28284,-6.33854 0.33016,-6.75842 0.11131,-0.98781 0.40483,-3.1243 1.02018,-6.99817 0.20696,-1.30292 0.64383,-3.45281 1.07827,-4.7625 0.43443,-1.30969 0.8894,-2.91703 1.01104,-3.57188 0.20115,-1.08283 0.92661,-4.02976 1.66091,-6.74687 0.1573,-0.58208 0.23575,-0.79971 0.42776,-1.37748 0.19201,-0.57777 0.46644,-1.35086 0.69395,-2.09556 0.23265,-0.76152 1.38956,-3.21269 2.24441,-5.62844 3.7644,-10.638 5.19818,-13.95513 9.44638,-21.85477 3.49498,-6.49901 7.85912,-12.959657 12.51075,-18.520827 0.97376,-1.16417 3.5885,-3.99223 5.81053,-6.28458 8.87489,-9.15576 15.65031,-12.94091 23.164246,-12.94091 7.51392,0 14.28935,3.78515 23.16424,12.94091 2.22203,2.29235 4.83677,5.12041 5.81053,6.28458 4.65163,5.56117 9.01577,12.021817 12.51075,18.520827 4.2482,7.89964 5.68198,11.21677 9.44638,21.85477 1.17368,2.84237 2.23789,5.92275 3.19861,8.70047 0.65702,2.25459 1.58387,5.83164 1.82837,7.14788 0.12165,0.65485 0.57662,2.26219 1.01105,3.57188 0.43444,1.30969 0.91965,3.45281 1.07827,4.7625 0.49991,4.12783 0.79646,6.05632 1.0779,7.00971 0.15121,0.51223 0.27267,3.52008 0.27244,6.74688 -2.6e-4,4.78289 -0.0983,6.33865 -0.54871,8.71278 -0.56159,2.96025 -1.57645,6.08123 -2.58637,7.95379 -0.31277,0.57993 -0.56867,1.13807 -0.56867,1.24032 0,0.31726 -4.22899,7.64331 -5.72441,9.91664 -3.42204,5.20217 -11.22195,14.51637 -16.22503,19.375 -3.54794,3.44549 -8.72179,7.16094 -12.84327,9.22301 -3.79308,1.89776 -8.93028,3.37847 -12.76615,3.67962 l -2.18281,0.17137 v -4.25586 -4.25586 l -2.97656,-0.0827 c -1.6371,-0.0455 -4.31601,-0.0426 -5.953126,0.006 l -2.97656,0.0889 v 4.16647 c 0,2.29155 -0.057,4.22343 -0.1266,4.29306 -0.21876,0.21876 -4.13764,-0.2907 -6.48587,-0.84316 z m 49.429196,-21.41373 c 2.79007,-2.89082 5.23821,-5.45733 5.23821,-5.54169 l -8.05868,-6.47914 -2.03954,2.4954 c -1.12795,1.38006 -2.58834,2.93058 -3.13239,3.54374 -2.07119,2.33429 -3.89035,4.56554 -3.89035,4.56554 0,0 6.8209,6.60091 6.8099,6.67216 z m -61.668289,-1.45105 c 0,-0.34204 -1.132717,-1.3734 -3.350267,-3.71485 -0.82692,-0.87312 -2.43557,-2.68882 -3.57477,-4.03489 -1.13921,-1.34607 -2.290826,-2.73488 -2.292124,-2.73694 0,0 -8.036531,6.41091 -8.039949,6.41424 0,0 2.437683,2.70319 5.231723,5.57004 l 5.08007,5.21245 z m 27.342439,-1.74365 c 9.14774,-1.12433 17.14451,-5.2469 23.54471,-12.138 2.92902,-3.15369 4.31247,-5.09521 6.03187,-8.4651 1.7396,-3.40946 2.53355,-5.8654 3.17161,-9.8108 0.82693,-5.11321 0.92026,-7.59981 0.44191,-11.77396 -0.69571,-6.07092 -1.78685,-9.63997 -4.64649,-15.19841 -2.71903,-5.28511 -5.50079,-8.9087 -11.89389,-15.49326 -2.26063,-2.32833 -5.05765,-5.36443 -6.21559,-6.74687 -1.15795,-1.38245 -3.54238,-4.18042 -5.29874,-6.21771 -1.75636,-2.03729 -4.18078,-4.92456 -5.38761,-6.41615 -1.20681,-1.49159 -2.23945,-2.71198 -2.29475,-2.71198 -0.0553,0 -0.78406,0.86321 -1.61949,1.91823 -0.835426,1.05503 -3.602126,4.35901 -6.148216,7.34219 -2.54609,2.98318 -5.28665,6.19786 -6.09013,7.14375 -0.80348,0.94589 -3.31379,3.62479 -5.57845,5.95312 -6.445,6.6262 -9.57963,10.88654 -12.45906,16.93334 -2.88138,6.05091 -4.06121,11.35517 -4.03133,18.12396 0.0477,10.80343 3.34622,18.85511 10.79186,26.34274 1.75099,1.76087 3.96042,3.74866 4.90985,4.41733 5.18824,3.65398 10.48191,5.73958 16.98231,6.6907 1.497496,0.21911 3.331116,0.4442 3.429536,0.47421 0.0918,-0.0336 1.84276,-0.30127 2.36009,-0.36733 z m -7.914636,-7.01325 c -8.14627,-2.1273 -14.24755,-6.39743 -18.69179,-13.0819 -3.10905,-4.67625 -4.84372,-12.40705 -4.16543,-18.56389 0.90933,-8.25404 3.64038,-13.71787 10.52101,-21.04873 1.54497,-1.64606 3.90026,-3.96278 5.23398,-5.14827 2.72403,-2.42127 7.85343,-7.37998 10.585726,-10.23344 0.99593,-1.0401 1.84795,-1.89109 1.89339,-1.89109 0.0454,0 0.89747,0.85137 1.8934,1.89194 2.48771,2.59924 7.58958,7.55671 9.35139,9.08674 4.20075,3.6481 9.37143,9.17783 11.61043,12.41666 3.08952,4.46915 4.73732,9.02599 5.37468,14.86326 0.51194,4.68853 -0.45128,10.94493 -2.35665,15.30707 -2.76958,6.34067 -9.08506,12.21804 -16.04278,14.92988 -6.32612,2.46566 -10.02903,2.82403 -15.207356,1.47177 z m 7.105546,-17.15496 c 2.38477,-0.77659 3.93266,-1.75119 5.49323,-3.4587 5.84528,-6.39566 3.97706,-17.40478 -3.51773,-20.72936 -2.70149,-1.19834 -4.73312,-1.17579 -7.482816,0.0831 -1.99071,0.91137 -3.03693,1.74356 -4.26153,3.3897 -3.73352,5.01872 -3.43561,12.53556 0.67815,17.11105 1.65996,1.84627 3.26478,2.8918 5.494876,3.57986 l 1.88489,0.58155 z m 5.41301,-67.55395 c 0.003,-1.7e-4 7.36484,-8.55705 7.36484,-8.55705 l -2.75534,-2.83881 c -1.51544,-1.56135 -3.47093,-3.611737 -4.34555,-4.556417 -0.87461,-0.94467 -2.89376,-3.12745 -4.487,-4.85062 l -2.89679,-3.13304 -1.46612,1.54554 c -0.806376,0.85004 -2.832796,3.03381 -4.503176,4.85282 -1.67037,1.81901 -4.28137,4.585667 -5.80221,6.148137 -1.52084,1.56246 -2.650975,2.96038 -2.6515,2.95947 -0.03052,-0.0257 7.439967,8.72407 7.439967,8.72407 0,0 6.921841,-7.48283 6.961209,-7.51293 -0.0558,0.0375 7.14167,7.21883 7.14167,7.21883 z m 25.80923,-9.3164 c 0,0 -7.87742,-9.366673 -7.89753,-9.420262 l -7.77776,8.300742 c 0,0 8.42946,8.92315 8.41449,8.93871 z m -49.783025,-1.62019 c 0,0 -7.811662,-8.115228 -7.825691,-8.131761 l -8.318286,9.320561 c -0.02162,-0.0443 7.411701,8.24804 7.411701,8.24804 z"
             id="path378" /><path
             style="fill:#007565;fill-opacity:1;stroke-width:0.261207"
             d="m 123.03707,95.175762 c 0,0 -16.33204,-16.829559 -17.80411,-17.787169 -4.07497,-2.65083 -10.663196,-2.62887 -14.706076,0.049 -1.65724,1.09771 -17.330625,16.95231 -17.229995,17.38518 0.10949,0.47101 7.54553,8.241757 7.79985,8.150937 0.117,-0.0418 6.061725,-6.454007 9.815025,-10.368857 3.7533,-3.91484 6.921971,-7.1179 7.041484,-7.1179 0.119515,0 3.314632,3.23189 7.100272,7.18198 3.78564,3.95009 10.0889,10.830757 10.17712,10.831427 0.004,-0.007 7.80643,-8.324598 7.80643,-8.324598 z"
             id="path1296" /><path
             style="fill:#007565;fill-opacity:1;stroke-width:0.261207"
             d="m 90.984074,114.18893 -7.411235,-8.73767 c 0,0 -5.841295,6.06846 -9.211045,9.98419 l -2.50727,2.9135 -2.05068,-2.12988 c -1.12787,-1.17144 -3.81695,-4.08495 -5.98419,-6.46678 l -4.073837,-4.47721 c -1.754689,2.86073 -4.898558,8.71238 -4.912366,8.71381 l 3.707863,3.81229 c 1.937721,1.9923 5.84861,6.38151 8.66516,9.77891 2.81656,3.39741 5.23902,6.25004 5.38325,6.33918 2.902841,-3.20005 5.811444,-6.58622 8.581056,-9.53468 3.157616,-3.36152 6.19066,-6.29433 9.813294,-10.19566 z m 14.094616,-0.28842 7.36965,-8.56471 c 0,0 6.37563,7.50508 9.74538,11.42081 l 2.50727,2.9135 2.05068,-2.12988 c 1.12788,-1.17144 3.81103,-4.09036 5.98419,-6.46678 l 4.13584,-4.52269 c 1.78977,2.8432 4.83656,8.75786 4.85036,8.75929 l -3.70786,3.81229 c -1.93772,1.9923 -5.84861,6.38151 -8.66516,9.77891 -2.81656,3.39741 -5.23902,6.25004 -5.38325,6.33918 -2.90284,-3.20005 -5.81145,-6.58622 -8.58106,-9.53468 -3.15762,-3.36152 -10.30825,-11.83278 -10.30604,-11.80524 z"
             id="path1298" /><path
             style="fill:#007565;fill-opacity:1;stroke-width:0.261207"
             d="m 57.215844,174.52245 c 0.2017,-8.32588 1.26151,-14.97012 3.1462,-19.72439 1.43578,-3.62186 7.16309,-14.24956 8.50614,-15.78414 0.6462,-0.73835 0.38866,-1.4495 -1.37691,-3.80214 -3.3801,-4.50402 -11.8702,-14.52545 -13.57104,-16.0188 l -1.14183,-0.96181 -0.829078,1.80143 c -0.555222,1.20639 -1.327198,3.09196 -2.009218,4.84563 -1.183711,3.04365 -2.227946,6.04522 -2.227946,6.04522 0.0037,0.0114 1.684942,1.60163 3.021882,3.182 1.33694,1.58037 2.83219,3.34095 3.32278,3.91239 l 0.89197,1.039 -0.45523,0.96835 c -0.25038,0.53259 -0.63465,1.24741 -0.85393,1.58848 l -0.39871,0.62013 -2.1277,-2.07605 c -1.17023,-1.14183 -2.7623,-2.63002 -3.53793,-3.30708 l -1.575605,-1.34782 c -1.315578,2.59949 -2.199742,5.73119 -2.836245,8.30162 -0.536564,1.89003 -0.978252,3.92786 -0.978252,3.92786 0,0 0.891759,1.58765 2.550702,3.60707 3.790999,4.61476 3.68851,4.44332 3.52403,5.89528 -0.0785,0.69286 -0.4659,2.6115 -0.86091,4.26364 -0.61148,2.55757 -0.7194,3.57531 -0.72635,6.84985 -0.004,2.11528 0.0592,3.91333 0.14156,3.99567 0.24861,0.24862 10.39689,2.37416 10.40162,2.17861 z"
             id="path1300" /><path
             style="fill:#007565;fill-opacity:1;stroke-width:0.261207"
             d="m 63.924055,196.87335 c 0,0 -0.08746,-0.0751 -1.051041,-1.6687 -3.709851,-5.62067 -3.746729,-5.60335 -4.98253,-12.08534 -0.10158,-0.67905 -0.27266,-1.28901 -0.38019,-1.35546 -0.10752,-0.0665 -4.12659,-0.90381 -8.93125,-1.86078 -4.80468,-0.95698 -8.94372,-1.85103 -9.19787,-1.98678 -0.4191,-0.22386 -0.67766,-0.14244 -0.52225,0.87516 0.31138,2.03893 1.155277,4.88567 1.956581,6.83054 0.656231,1.59276 0.887186,2.13719 1.266748,2.84225 0.695273,0.37765 0.867485,0.38654 2.119507,0.87314 0.745767,0.28984 1.923174,0.65955 2.577194,0.93509 1.17075,0.49326 1.012122,0.59414 2.384398,3.2856 1.233251,2.41879 1.593643,3.16506 3.875986,6.21225 1.438265,1.92025 2.844261,3.52117 2.844096,3.52117 z"
             id="path1302" /><path
             style="fill:#007565;fill-opacity:1;stroke-width:0.261207"
             d="m 122.99643,221.20941 c -0.0301,-0.66471 -0.0631,-1.27913 -0.1727,-2.62177 -0.4035,-4.94373 -2.60758,-6.83987 -7.07222,-8.52605 -1.12167,-0.42363 -2.38062,-0.59847 -5.38225,-0.7475 -5.18657,-0.2575 -26.804466,-0.0519 -28.488576,0.27095 -1.75122,0.33571 -4.16158,1.51383 -5.52639,2.70115 -1.47445,1.2827 -2.85541,4.13647 -3.16821,6.54715 -0.13443,1.03598 -0.13927,2.01613 -0.0112,2.26148 0.58479,1.12001 5.53229,3.66205 6.25637,3.21454 0.11651,-0.072 0.40454,-0.80462 0.64006,-1.62804 0.52349,-1.83016 1.40468,-3.16772 2.53869,-3.85346 0.82016,-0.49595 1.445988,-0.51708 15.418334,-0.59811 l 14.001222,-0.0812 c 1.63829,-0.01 3.5274,3.21755 4.0605,4.67746 0.35629,0.9757 0.29974,0.99603 0.59615,1.60508 0.32587,0.66961 5.65583,-2.09897 6.31022,-3.22168 z"
             id="path1304" /><path
             style="fill:#007565;fill-opacity:1;stroke-width:0.261207"
             d="m 140.84784,202.31039 c 4.01146,-6.17667 4.42573,-6.83749 6.83715,-10.81376 0.50617,-0.83464 0.30453,-1.01705 3.04622,-1.82823 l 2.89635,-0.85694 0.72059,-1.53583 c 1.44382,-3.07724 2.00849,-5.35101 2.63673,-8.70756 0.14724,-0.78666 -0.0426,-0.84055 -0.58624,-0.60454 -0.31862,0.13832 -4.44538,1.01893 -9.17058,1.95691 -4.7252,0.93798 -8.68206,1.76153 -8.79302,1.8301 -0.11096,0.0686 -0.27977,0.62363 -0.37515,1.23345 -1.29219,6.60798 -1.36097,6.20075 -3.62962,9.93193 -0.76258,1.1821 -2.40823,3.84908 -2.44801,3.87977 0,0 8.05733,6.47181 8.02685,6.4958 0.0758,-1e-5 0.40773,-0.4506 0.83873,-0.9811 z"
             id="path1306" /><path
             style="fill:#007565;fill-opacity:1;stroke-width:0.261207"
             d="m 142.49776,173.88569 c 1.58031,-0.34515 3.69608,-0.83448 4.70173,-1.08741 l 1.82845,-0.45986 0.21117,-1.82845 c 0.26888,-2.32818 -0.14663,-6.50214 -0.9968,-10.01324 -0.71554,-2.95513 -0.80462,-4.23107 -0.35417,-5.07276 0.16326,-0.30506 1.53848,-2.02911 3.05603,-3.83124 l 2.8739,-3.27762 -0.25553,-1.13449 c -1.52827,-6.78505 -3.51433,-11.29959 -3.51433,-11.29959 -0.22931,-2.6e-4 -4.76992,3.68909 -6.09975,5.08312 -0.49509,0.51899 -1.05144,0.94362 -1.23633,0.94362 -0.18489,0 -0.63486,-0.58944 -0.99993,-1.30987 -0.57772,-1.14008 -0.62061,-1.39151 -0.33091,-1.93986 0.30818,-0.58333 4.41267,-5.38237 5.97317,-6.98396 l 0.81982,-0.75215 -1.10691,-3.08497 c -0.88188,-2.45783 -3.71789,-9.53846 -3.94132,-9.53846 -0.76254,0 -12.86054,14.03224 -15.67143,18.22695 -1.01453,1.51397 -1.02425,1.55103 -0.58226,2.22026 1.41097,2.1364 5.30857,8.9069 6.48181,11.25948 3.51918,7.05671 4.70001,11.78295 5.0088,20.04767 0.19621,5.25141 -0.29129,4.79952 4.13479,3.83283 z"
             id="path1308" /><path
             style="fill:#007565;fill-opacity:1;stroke-width:0.261207"
             d="m 101.61881,192.42618 c 8.28994,-2.42852 14.62366,-8.78392 16.76527,-16.82267 0.50419,-1.89249 0.58984,-2.85651 0.58021,-6.53018 -0.0103,-3.9333 -0.0738,-4.51535 -0.72695,-6.66079 -2.98578,-9.80811 -12.06252,-16.94089 -21.033972,-16.52916 -4.989634,0.229 -9.094054,2.21933 -13.347024,6.47231 -5.30682,5.30681 -7.39229,10.90804 -6.9538,18.6767 0.18789,3.32873 0.40804,4.39172 1.49131,7.20074 1.44956,3.75883 4.43843,7.67382 7.80751,10.22669 2.39715,1.81641 6.49439,3.76217 8.94155,4.24629 2.711499,0.53641 3.858515,0.48683 6.475896,-0.27993 z m -6.065786,-7.17754 c -4.02775,-1.35685 -8.06499,-5.03373 -10.2264,-9.31361 -2.09888,-4.15606 -1.92329,-10.37014 0.41742,-14.77294 2.18808,-4.11569 7.26914,-7.88635 11.357965,-8.42875 4.166341,-0.55269 10.773641,3.83559 13.197151,8.76498 1.39715,2.84177 1.85188,5.05553 1.69013,8.22803 -0.31661,6.20997 -4.04234,11.79607 -9.84806,14.7655 -2.726842,1.39469 -4.19425,1.56326 -6.588206,0.75679 z"
             id="path2038" /></g></g></g></g></svg>
